<svg width="267" height="284" viewBox="0 0 267 284" fill="none" xmlns="http://www.w3.org/2000/svg">
<path d="M258.203 61.6942C257.482 86.2292 208.278 103.408 183.766 108.931L175.543 69.729C174.858 66.4621 246.337 40.0931 246.337 40.0931C250.821 38.1596 258.923 37.1592 258.203 61.6942Z" fill="#B02DDE" stroke="#B02DDE"/>
<path d="M3.30631 88.4504C8.10749 112.59 59.5867 122.558 84.7262 124.525L86.3181 84.6198C86.4507 81.2943 11.4302 65.4177 11.4302 65.4177C6.67754 64.1457 -1.49487 64.3109 3.30631 88.4504Z" fill="#B02DDE" stroke="#B02DDE"/>
<path d="M79.7938 144.647C84.9104 197.734 101.394 201.218 140.996 201.218C184.197 197.89 203.714 187.751 198.598 134.664C193.481 81.5769 187.797 1.55539 126.595 4.88375C69.0931 8.0109 74.6772 91.5597 79.7938 144.647Z" fill="#B02DDE"/>
<path d="M126.796 149.24C118.37 150.633 113.781 142.109 113.781 142.109L135.783 137.991C135.783 137.991 135.359 147.825 126.796 149.24Z" fill="#C34FEC"/>
<path d="M155.195 142.585C146.769 143.977 142.181 135.454 142.181 135.454L164.183 131.336C164.183 131.336 163.758 141.17 155.195 142.585Z" fill="#C34FEC"/>
<path d="M147.995 162.551C139.569 163.943 134.981 155.42 134.981 155.42L156.983 151.302C156.983 151.302 156.558 161.136 147.995 162.551Z" fill="#C34FEC"/>
<path d="M158.997 21.5217C150.033 21.5217 139.731 28.1766 130.196 28.177C120.66 28.1774 119.968 25.6434 101.395 25.7484C82.8213 25.8534 89.289 80.6441 112.195 81.4202C119.528 81.6686 126.454 67.0022 133.795 66.8757C141.069 66.7504 148.144 77.3929 155.396 76.8601C178.275 75.1792 172.333 21.5217 158.997 21.5217Z" fill="#D9D9D9"/>
<path d="M136.258 59.6306C137.246 69.8836 140.74 70.5311 149.148 70.4685C158.327 69.757 162.49 67.7663 161.502 57.5133C160.513 47.2602 159.455 31.8019 146.454 32.542C134.239 33.2373 135.27 49.3775 136.258 59.6306Z" fill="white"/>
<path d="M102.345 62.5559C103.333 72.809 106.827 73.4564 115.235 73.3938C124.414 72.6824 128.577 70.6917 127.589 60.4386C126.601 50.1856 125.542 34.7273 112.541 35.4673C100.326 36.1626 101.357 52.3029 102.345 62.5559Z" fill="white"/>
<path d="M116.883 79.3333C116.844 78.7824 117.259 78.3055 117.81 78.2681L147.634 76.2431C148.185 76.2057 148.663 76.622 148.702 77.1729L150.178 98.0683C150.411 101.359 147.931 104.208 144.64 104.432L124.74 105.783C121.449 106.006 118.592 103.52 118.36 100.229L116.883 79.3333Z" fill="#F49000"/>
<path d="M119.679 81.1623C119.64 80.6114 120.055 80.1345 120.606 80.0971L145.122 78.4325C145.673 78.3951 146.151 78.8113 146.19 79.3622L147.382 96.2392C147.615 99.5301 145.135 102.379 141.844 102.603L127.252 103.593C123.961 103.817 121.104 101.33 120.871 98.0393L119.679 81.1623Z" fill="#B16900"/>
<path d="M122.043 101.03C118.556 95.5295 120.388 87.0086 120.388 87.0086C134.418 90.7475 135.208 95.4895 139.976 102.5C139.976 102.5 137.02 103.353 133.5 103.366C126.028 103.395 123.935 104.013 122.043 101.03Z" fill="#FFB8D1" stroke="#FFB8D1" stroke-width="0.2"/>
<path d="M132.708 66.3529C119.278 67.8146 116.492 81.7389 116.492 81.7389L151.796 78.6042C151.796 78.6042 146.356 64.8674 132.708 66.3529Z" fill="#FFC200"/>
<path d="M131.304 67.8029C127.532 68.3672 126.682 71.7693 126.682 71.7693L136.593 70.4565C136.593 70.4565 135.136 67.2294 131.304 67.8029Z" fill="#FFD292"/>
<path d="M144.225 60.6283C144.681 65.7713 147.124 65.6495 151.059 65.3138C154.994 64.9782 157.793 64.6029 157.336 59.4599C156.88 54.317 155.704 46.1524 149.406 46.6896C143.108 47.2268 143.768 55.4854 144.225 60.6283Z" fill="#4B4B4B"/>
<path d="M110.85 62.9651C111.306 68.108 113.749 67.9862 117.684 67.6506C121.619 67.315 124.418 66.9397 123.961 61.7967C123.505 56.6538 122.329 48.4892 116.031 49.0264C109.733 49.5636 110.393 57.8222 110.85 62.9651Z" fill="#4B4B4B"/>
<path d="M103.735 50.7261C104.218 55.7338 105.95 56.0479 110.119 56.0122C114.671 55.659 116.737 54.6841 116.254 49.6764C115.771 44.6687 115.258 37.1184 108.81 37.4879C102.753 37.835 103.252 45.7184 103.735 50.7261Z" fill="white"/>
<path d="M137.11 50.5194C137.593 55.5271 139.325 55.8412 143.494 55.8055C148.046 55.4523 150.112 54.4774 149.629 49.4697C149.146 44.462 148.633 36.9117 142.185 37.2812C136.128 37.6284 136.627 45.5117 137.11 50.5194Z" fill="white"/>
<path d="M214.936 196.14C211.421 192.075 205.276 191.629 201.211 195.144L192.44 202.729C188.375 206.244 187.93 212.388 191.445 216.453V216.453C194.96 220.518 201.104 220.964 205.169 217.449L213.94 209.864C218.005 206.349 218.451 200.205 214.936 196.14V196.14Z" fill="#F49000"/>
<path d="M79.2651 208.746C81.6207 203.916 87.4458 201.91 92.2759 204.265L102.698 209.348C107.528 211.703 109.534 217.529 107.178 222.359V222.359C104.823 227.189 98.9977 229.195 94.1676 226.839L83.7456 221.756C78.9155 219.401 76.9096 213.576 79.2651 208.746V208.746Z" fill="#F49000"/>
<line x1="121.01" y1="282.5" x2="173.01" y2="283.5" stroke="white"/>
</svg>
