<svg width="69" height="69" viewBox="0 0 69 69" fill="none" xmlns="http://www.w3.org/2000/svg">
<path d="M65.4642 19.7593C65.2511 26.806 50.7079 31.74 43.4629 33.3262L41.0324 22.0669C40.8298 21.1287 61.9571 13.5552 61.9571 13.5552C63.2825 12.9999 65.6773 12.7125 65.4642 19.7593Z" fill="#B02DDE" stroke="#B02DDE"/>
<path d="M0.977244 25.7979C2.39634 32.731 17.6122 35.594 25.0427 36.1589L25.5132 24.6977C25.5525 23.7426 3.37845 19.1827 3.37845 19.1827C1.97369 18.8174 -0.441853 18.8648 0.977244 25.7979Z" fill="#B02DDE" stroke="#B02DDE"/>
<ellipse cx="4.43017" cy="7.28463" rx="4.43017" ry="7.28463" transform="matrix(-0.68597 0.72763 0.795956 0.605355 18.7576 53.0129)" fill="#F49000"/>
<ellipse cx="4.50884" cy="7.15753" rx="4.50884" ry="7.15753" transform="matrix(0.795781 0.605584 -0.686187 0.727425 55.1008 49.1899)" fill="#F49000"/>
<path d="M17.5849 41.544C19.0972 56.7912 23.9695 57.7919 35.6745 57.7919C48.4437 56.8361 54.2124 53.924 52.7001 38.6769C51.1878 23.4297 49.5078 0.446724 31.4182 1.40266C14.4221 2.30081 16.0726 26.2969 17.5849 41.544Z" fill="#B02DDE"/>
<path d="M31.4773 42.8634C28.9868 43.2633 27.6306 40.8152 27.6306 40.8152L34.1338 39.6325C34.1338 39.6325 34.0083 42.457 31.4773 42.8634Z" fill="#C34FEC"/>
<path d="M39.8715 40.9519C37.381 41.3518 36.0248 38.9037 36.0248 38.9037L42.528 37.721C42.528 37.721 42.4024 40.5455 39.8715 40.9519Z" fill="#C34FEC"/>
<path d="M37.7433 46.6864C35.2528 47.0863 33.8966 44.6382 33.8966 44.6382L40.3998 43.4555C40.3998 43.4555 40.2743 46.28 37.7433 46.6864Z" fill="#C34FEC"/>
<path d="M33.2249 19.0572C29.2554 19.477 28.4319 23.4762 28.4319 23.4762L38.8668 22.5759C38.8668 22.5759 37.259 18.6306 33.2249 19.0572Z" fill="#F49000"/>
<path d="M35.4088 20.4672C34.3291 20.1575 33.6616 20.9371 33.6616 20.9371L36.4769 21.7951C36.4769 21.7951 36.5061 20.7819 35.4088 20.4672Z" fill="#F9BE6A"/>
</svg>
