<svg width="178" height="280" viewBox="0 0 178 280" fill="none" xmlns="http://www.w3.org/2000/svg">
<rect x="2.5" y="2.5" width="173" height="275" rx="23.5" fill="white" stroke="#FF9600" stroke-width="5"/>
<rect x="26" y="39" width="125" height="9" rx="4.5" fill="#EBEBEB"/>
<rect x="26" y="39" width="64.5695" height="9" rx="4.5" fill="#A75DE1"/>
<rect x="26" y="227" width="125" height="27" rx="10" fill="#A75DE1"/>
<rect x="20" y="72" width="60" height="50" rx="5" fill="#F1F1F1"/>
<path d="M59.4171 107.494C55.8758 110.835 46.1242 110.835 42.5829 107.494C40.3189 105.357 41.1483 101 41.1483 101H60.8517C60.8517 101 61.6812 105.357 59.4171 107.494Z" fill="#F2B65C"/>
<path d="M59.4171 87.5064C55.8758 84.1645 46.1242 84.1645 42.5829 87.5064C40.3189 89.6429 41.1483 94 41.1483 94H60.8517C60.8517 94 61.6812 89.6429 59.4171 87.5064Z" fill="#F2B65C"/>
<path d="M39 96C39 95.4477 39.4477 95 40 95H62C62.5523 95 63 95.4477 63 96V96C63 96.5523 62.5523 97 62 97H40C39.4477 97 39 96.5523 39 96V96Z" fill="#E93D3D"/>
<rect x="39" y="98" width="24" height="2" rx="1" fill="#45D95C"/>
<rect x="20" y="146" width="60" height="50" rx="5" fill="#F1F1F1"/>
<rect x="44" y="160" width="11" height="25" rx="3" fill="#D5D5D5"/>
<path d="M44 172H55V182C55 183.657 53.6569 185 52 185H47C45.3431 185 44 183.657 44 182V172Z" fill="#2AD3F8"/>
<rect x="48" y="157" width="3" height="4" fill="#D4D4D4"/>
<rect x="96" y="72" width="60" height="50" rx="5" fill="#F1F1F1"/>
<path d="M126.097 84.8994C126.459 84.1386 127.541 84.1386 127.903 84.8994L138.445 107.071C138.76 107.734 138.276 108.5 137.542 108.5H116.458C115.724 108.5 115.24 107.734 115.555 107.071L126.097 84.8994Z" fill="#F2EA27"/>
<path d="M114 108.352C114 107.605 114.605 107 115.352 107H138.921C139.667 107 140.273 107.605 140.273 108.352C140.273 109.098 139.667 109.703 138.921 109.703H115.352C114.605 109.703 114 109.098 114 108.352Z" fill="#F49000"/>
<circle cx="122.5" cy="102.5" r="1.5" fill="#EA2E2E"/>
<circle cx="128.5" cy="94.5" r="1.5" fill="#EA2E2E"/>
<circle cx="131.5" cy="103.5" r="1.5" fill="#EA2E2E"/>
<rect x="96" y="146" width="60" height="50" rx="5" fill="#F1F1F1"/>
<path d="M109.533 176.976L116.63 157.426L142.455 162.634L109.533 176.976Z" fill="#FFC200"/>
<path d="M109.5 177L142.5 162.5L142 175.5L109.5 187V177Z" fill="#FFC200"/>
<ellipse cx="109.5" cy="182" rx="1.5" ry="2" fill="#F1F1F1"/>
<ellipse cx="117.797" cy="164.861" rx="1.66667" ry="2.5" transform="rotate(51.4459 117.797 164.861)" fill="#E1AB00"/>
<ellipse cx="127.797" cy="164.861" rx="2.29076" ry="4.39107" transform="rotate(66.0868 127.797 164.861)" fill="#E1AB00"/>
<ellipse cx="137.672" cy="171.4" rx="1.59975" ry="2.26489" transform="rotate(0.185 137.672 171.4)" fill="#E1AB00"/>
<ellipse cx="123.077" cy="177.603" rx="1.59975" ry="2.26489" transform="rotate(0.185 123.077 177.603)" fill="#E1AB00"/>
<ellipse cx="112.774" cy="173.195" rx="0.543042" ry="1.23572" transform="rotate(51.4459 112.774 173.195)" fill="#E1AB00"/>
</svg>
