<svg width="124" height="100" viewBox="0 0 124 100" fill="none" xmlns="http://www.w3.org/2000/svg">
<path d="M107.821 3.77879C94.2872 2.66868 77.9121 11.4029 63.5156 10.2226C49.1192 9.0422 48.3862 5.14486 20.3313 3.00252C-7.72363 0.860174 -4.71907 84.0762 29.7686 88.0804C40.8091 89.3623 53.0755 68.1591 64.1757 68.8781C75.1732 69.5905 84.5414 86.4749 95.557 86.5716C130.307 86.8768 127.955 5.43037 107.821 3.77879Z" fill="#D9D9D9"/>
<path d="M69.0509 58.1339C69.6045 73.6704 74.8276 74.9675 87.5475 75.6475C101.492 75.4209 107.969 72.8055 107.415 57.2689C106.862 41.7324 106.679 18.3479 86.9527 18.2656C68.4188 18.1882 68.4973 42.5973 69.0509 58.1339Z" fill="white"/>
<path d="M17.5038 59.4178C18.0574 74.9544 23.2806 76.2514 36.0004 76.9314C49.945 76.7049 56.422 74.0894 55.8684 58.5529C55.3148 43.0163 55.132 19.6319 35.4056 19.5495C16.8718 19.4721 16.9502 43.8813 17.5038 59.4178Z" fill="white"/>
<path d="M81.0058 60.3705C81.2244 68.16 84.9294 68.2015 90.9101 68.0583C96.8909 67.915 101.157 67.6073 100.939 59.8178C100.72 52.0283 99.6915 39.6205 90.1188 39.8499C80.5462 40.0792 80.7873 52.581 81.0058 60.3705Z" fill="#4B4B4B"/>
<path d="M30.3259 60.8174C30.5444 68.6069 34.2495 68.6484 40.2302 68.5052C46.211 68.3619 50.4773 68.0542 50.2588 60.2647C50.0403 52.4752 49.0115 40.0674 39.4389 40.2968C29.8662 40.5261 30.1074 53.0279 30.3259 60.8174Z" fill="#4B4B4B"/>
<path d="M20.6907 41.7252C20.9611 49.3134 23.551 49.946 29.8589 50.2762C36.7744 50.1633 39.9872 48.8848 39.7168 41.2966C39.4464 33.7084 39.362 22.2871 29.5793 22.25C20.388 22.2152 20.4204 34.137 20.6907 41.7252Z" fill="white"/>
<path d="M71.1752 44.4871C71.4456 52.0753 74.0355 52.708 80.3434 53.0381C87.2589 52.9253 90.4717 51.6468 90.2013 44.0586C89.9309 36.4704 89.8465 25.0491 80.0638 25.012C70.8725 24.9771 70.9049 36.8989 71.1752 44.4871Z" fill="white"/>
<path d="M62.4357 69.0967C43.0487 69.4692 37.2508 91.8624 37.2508 91.8624L88.122 92.0429C88.122 92.0429 82.1378 68.7181 62.4357 69.0967Z" fill="#FFC200"/>
<path d="M62.4778 99.0987C52.204 98.999 49.0774 92.0956 49.0774 92.0956L76.0328 92C76.0328 92 72.9186 99.2 62.4778 99.0987Z" fill="#FFC200"/>
<path d="M56.871 74.3494C51.478 75.2984 50.4217 80.8922 50.4217 80.8922L64.602 78.6781C64.602 78.6781 62.3518 73.385 56.871 74.3494Z" fill="#FFD292"/>
</svg>
