<svg width="178" height="280" viewBox="0 0 178 280" fill="none" xmlns="http://www.w3.org/2000/svg">
<rect x="2.5" y="2.5" width="173" height="275" rx="23.5" fill="white" stroke="#FF9600" stroke-width="5"/>
<rect x="26" y="39" width="125" height="9" rx="4.5" fill="#EBEBEB"/>
<rect x="26" y="39" width="64.5695" height="9" rx="4.5" fill="#A75DE1"/>
<rect x="0.5" y="68.5" width="175" height="166" rx="4.5" stroke="#9747FF" stroke-dasharray="10 5"/>
<rect x="20" y="88" width="60" height="50" rx="5" fill="#F1F1F1"/>
<path d="M59.4171 123.494C55.8758 126.835 46.1242 126.835 42.5829 123.494C40.3189 121.357 41.1483 117 41.1483 117H60.8517C60.8517 117 61.6812 121.357 59.4171 123.494Z" fill="#F2B65C"/>
<path d="M59.4171 103.506C55.8758 100.165 46.1242 100.165 42.5829 103.506C40.3189 105.643 41.1483 110 41.1483 110H60.8517C60.8517 110 61.6812 105.643 59.4171 103.506Z" fill="#F2B65C"/>
<path d="M39 112C39 111.448 39.4477 111 40 111H62C62.5523 111 63 111.448 63 112C63 112.552 62.5523 113 62 113H40C39.4477 113 39 112.552 39 112Z" fill="#E93D3D"/>
<rect x="39" y="114" width="24" height="2" rx="1" fill="#45D95C"/>
<rect x="20" y="148" width="60" height="50" rx="5" fill="#F1F1F1"/>
<rect x="44" y="162" width="11" height="25" rx="3" fill="#D5D5D5"/>
<path d="M44 174H55V184C55 185.657 53.6569 187 52 187H47C45.3431 187 44 185.657 44 184V174Z" fill="#2AD3F8"/>
<rect x="48" y="159" width="3" height="4" fill="#D4D4D4"/>
<rect x="96" y="88" width="60" height="50" rx="5" fill="#F1F1F1"/>
<path d="M126.097 100.899C126.459 100.139 127.541 100.139 127.903 100.899L138.445 123.071C138.76 123.734 138.276 124.5 137.542 124.5H116.458C115.724 124.5 115.24 123.734 115.555 123.071L126.097 100.899Z" fill="#F2EA27"/>
<path d="M114 124.352C114 123.605 114.605 123 115.352 123H138.921C139.667 123 140.273 123.605 140.273 124.352C140.273 125.098 139.667 125.703 138.921 125.703H115.352C114.605 125.703 114 125.098 114 124.352Z" fill="#F49000"/>
<circle cx="122.5" cy="118.5" r="1.5" fill="#EA2E2E"/>
<circle cx="128.5" cy="110.5" r="1.5" fill="#EA2E2E"/>
<circle cx="131.5" cy="119.5" r="1.5" fill="#EA2E2E"/>
<rect x="96" y="149" width="60" height="50" rx="5" fill="#F1F1F1"/>
<path d="M109.533 179.976L116.63 160.426L142.455 165.634L109.533 179.976Z" fill="#FFC200"/>
<path d="M109.5 180L142.5 165.5L142 178.5L109.5 190V180Z" fill="#FFC200"/>
<ellipse cx="109.5" cy="185" rx="1.5" ry="2" fill="#F1F1F1"/>
<ellipse cx="117.797" cy="167.861" rx="1.66667" ry="2.5" transform="rotate(51.4459 117.797 167.861)" fill="#E1AB00"/>
<ellipse cx="127.797" cy="167.861" rx="2.29076" ry="4.39107" transform="rotate(66.0868 127.797 167.861)" fill="#E1AB00"/>
<ellipse cx="137.672" cy="174.4" rx="1.59975" ry="2.26489" transform="rotate(0.185 137.672 174.4)" fill="#E1AB00"/>
<ellipse cx="123.077" cy="180.603" rx="1.59975" ry="2.26489" transform="rotate(0.185 123.077 180.603)" fill="#E1AB00"/>
<ellipse cx="112.774" cy="176.195" rx="0.543042" ry="1.23572" transform="rotate(51.4459 112.774 176.195)" fill="#E1AB00"/>
<rect x="26" y="227" width="125" height="27" rx="10" fill="#A75DE1"/>
</svg>
